<?xml version="1.0" standalone="no"?><!DOCTYPE svg PUBLIC "-//W3C//DTD SVG 1.1//EN" "http://www.w3.org/Graphics/SVG/1.1/DTD/svg11.dtd"><svg t="1672903771361" class="icon" viewBox="0 0 1024 1024" version="1.1" xmlns="http://www.w3.org/2000/svg" p-id="14147" xmlns:xlink="http://www.w3.org/1999/xlink" width="200" height="200"><path d="M273.07008 614.4H409.6v136.52992H273.07008zM273.07008 273.07008H409.6V409.6H273.07008z" p-id="14148" fill="#1296db"></path><path d="M853.32992 102.4H170.67008C133.13024 102.4 102.4 133.13024 102.4 170.67008v682.65984C102.4 890.86976 133.13024 921.6 170.67008 921.6h682.65984C890.86976 921.6 921.6 890.86976 921.6 853.32992V170.67008C921.6 133.13024 890.86976 102.4 853.32992 102.4z m-307.2 136.52992h204.8V307.2h-204.8v-68.27008z m0 341.34016h136.54016v68.25984H546.12992v-68.25984z m-68.25984 170.65984C477.87008 788.46976 447.1296 819.2 409.6 819.2H273.07008C235.53024 819.2 204.8 788.46976 204.8 750.92992V614.4c0-37.5296 30.73024-68.27008 68.27008-68.27008H409.6c37.5296 0 68.27008 30.74048 68.27008 68.27008v136.52992z m0-341.32992c0 37.5296-30.74048 68.27008-68.27008 68.27008H273.07008C235.53024 477.87008 204.8 447.1296 204.8 409.6V273.07008C204.8 235.53024 235.53024 204.8 273.07008 204.8H409.6c37.5296 0 68.27008 30.73024 68.27008 68.27008V409.6z m273.05984 375.47008h-204.8V716.8h204.8v68.27008zM819.2 443.72992H546.12992v-68.25984H819.2v68.25984z" p-id="14149" fill="#1296db"></path></svg>